<svg xmlns="http://www.w3.org/2000/svg" width="1760" height="500" viewBox="0 0 1760 500" font-family="Helvetica,Arial,sans-serif">
<rect width="1760" height="500" fill="white"/>
<text x="880.0" y="20" text-anchor="middle" font-size="15" font-weight="bold">Triage referral pattern over time (real main-study replicate)</text>

<text x="220.0" y="60" text-anchor="middle" font-size="13">through round 1</text>
<line x1="369.2" y1="245.0" x2="351.1" y2="270.0" stroke="#bbb" stroke-width="2.2" opacity="0.85"/>
<line x1="369.2" y1="245.0" x2="218.1" y2="137.0" stroke="#bbb" stroke-width="2.2" opacity="0.85"/>
<line x1="369.2" y1="245.0" x2="321.8" y2="260.4" stroke="#bbb" stroke-width="1.6" opacity="0.85"/>
<line x1="369.2" y1="245.0" x2="321.8" y2="229.6" stroke="#bbb" stroke-width="1.6" opacity="0.85"/>
<line x1="369.2" y1="245.0" x2="55.8" y2="229.6" stroke="#bbb" stroke-width="1.6" opacity="0.85"/>
<line x1="369.2" y1="245.0" x2="188.8" y2="96.6" stroke="#bbb" stroke-width="1.6" opacity="0.85"/>
<line x1="369.2" y1="245.0" x2="351.1" y2="220.0" stroke="#bbb" stroke-width="1.6" opacity="0.85"/>
<line x1="369.2" y1="245.0" x2="218.1" y2="353.0" stroke="#bbb" stroke-width="1.6" opacity="0.85"/>
<line x1="369.2" y1="245.0" x2="85.1" y2="220.0" stroke="#bbb" stroke-width="1.6" opacity="0.85"/>
<line x1="369.2" y1="245.0" x2="218.1" y2="87.0" stroke="#bbb" stroke-width="1.6" opacity="0.85"/>
<line x1="236.2" y1="378.0" x2="103.2" y2="245.0" stroke="#bbb" stroke-width="2.2" opacity="0.85"/>
<line x1="236.2" y1="378.0" x2="351.1" y2="270.0" stroke="#bbb" stroke-width="2.2" opacity="0.85"/>
<line x1="236.2" y1="378.0" x2="218.1" y2="403.0" stroke="#bbb" stroke-width="1.6" opacity="0.85"/>
<line x1="236.2" y1="378.0" x2="218.1" y2="137.0" stroke="#bbb" stroke-width="1.6" opacity="0.85"/>
<line x1="236.2" y1="378.0" x2="321.8" y2="260.4" stroke="#bbb" stroke-width="1.6" opacity="0.85"/>
<line x1="236.2" y1="378.0" x2="188.8" y2="393.4" stroke="#bbb" stroke-width="1.6" opacity="0.85"/>
<line x1="236.2" y1="378.0" x2="55.8" y2="260.4" stroke="#bbb" stroke-width="1.6" opacity="0.85"/>
<line x1="236.2" y1="378.0" x2="188.8" y2="362.6" stroke="#bbb" stroke-width="1.6" opacity="0.85"/>
<line x1="236.2" y1="378.0" x2="55.8" y2="229.6" stroke="#bbb" stroke-width="1.6" opacity="0.85"/>
<line x1="236.2" y1="378.0" x2="188.8" y2="96.6" stroke="#bbb" stroke-width="1.6" opacity="0.85"/>
<line x1="236.2" y1="378.0" x2="218.1" y2="353.0" stroke="#bbb" stroke-width="1.6" opacity="0.85"/>
<line x1="103.2" y1="245.0" x2="85.1" y2="270.0" stroke="#bbb" stroke-width="2.2" opacity="0.85"/>
<line x1="103.2" y1="245.0" x2="55.8" y2="260.4" stroke="#bbb" stroke-width="1.6" opacity="0.85"/>
<line x1="103.2" y1="245.0" x2="188.8" y2="362.6" stroke="#bbb" stroke-width="1.6" opacity="0.85"/>
<line x1="103.2" y1="245.0" x2="55.8" y2="229.6" stroke="#bbb" stroke-width="1.6" opacity="0.85"/>
<line x1="103.2" y1="245.0" x2="218.1" y2="353.0" stroke="#bbb" stroke-width="1.6" opacity="0.85"/>
<line x1="103.2" y1="245.0" x2="85.1" y2="220.0" stroke="#bbb" stroke-width="1.6" opacity="0.85"/>
<line x1="103.2" y1="245.0" x2="218.1" y2="87.0" stroke="#bbb" stroke-width="1.6" opacity="0.85"/>
<line x1="236.2" y1="112.0" x2="218.1" y2="403.0" stroke="#bbb" stroke-width="1.6" opacity="0.85"/>
<line x1="236.2" y1="112.0" x2="85.1" y2="270.0" stroke="#bbb" stroke-width="2.2" opacity="0.85"/>
<line x1="236.2" y1="112.0" x2="218.1" y2="137.0" stroke="#bbb" stroke-width="1.6" opacity="0.85"/>
<line x1="236.2" y1="112.0" x2="188.8" y2="127.4" stroke="#bbb" stroke-width="1.6" opacity="0.85"/>
<line x1="236.2" y1="112.0" x2="321.8" y2="229.6" stroke="#bbb" stroke-width="1.6" opacity="0.85"/>
<line x1="236.2" y1="112.0" x2="188.8" y2="96.6" stroke="#bbb" stroke-width="1.6" opacity="0.85"/>
<line x1="236.2" y1="112.0" x2="85.1" y2="220.0" stroke="#bbb" stroke-width="1.6" opacity="0.85"/>
<line x1="236.2" y1="112.0" x2="218.1" y2="87.0" stroke="#bbb" stroke-width="1.6" opacity="0.85"/>
<line x1="351.1" y1="270.0" x2="321.8" y2="260.4" stroke="#bbb" stroke-width="1.6" opacity="0.85"/>
<line x1="351.1" y1="270.0" x2="321.8" y2="229.6" stroke="#bbb" stroke-width="1.6" opacity="0.85"/>
<line x1="351.1" y1="270.0" x2="188.8" y2="96.6" stroke="#bbb" stroke-width="1.6" opacity="0.85"/>
<line x1="351.1" y1="270.0" x2="351.1" y2="220.0" stroke="#bbb" stroke-width="1.6" opacity="0.85"/>
<line x1="351.1" y1="270.0" x2="85.1" y2="220.0" stroke="#bbb" stroke-width="1.6" opacity="0.85"/>
<line x1="218.1" y1="403.0" x2="188.8" y2="393.4" stroke="#bbb" stroke-width="1.6" opacity="0.85"/>
<line x1="218.1" y1="403.0" x2="188.8" y2="362.6" stroke="#bbb" stroke-width="1.6" opacity="0.85"/>
<line x1="218.1" y1="403.0" x2="218.1" y2="353.0" stroke="#bbb" stroke-width="1.6" opacity="0.85"/>
<line x1="85.1" y1="270.0" x2="55.8" y2="260.4" stroke="#bbb" stroke-width="1.6" opacity="0.85"/>
<line x1="85.1" y1="270.0" x2="321.8" y2="229.6" stroke="#bbb" stroke-width="1.6" opacity="0.85"/>
<line x1="85.1" y1="270.0" x2="55.8" y2="229.6" stroke="#bbb" stroke-width="1.6" opacity="0.85"/>
<line x1="85.1" y1="270.0" x2="218.1" y2="353.0" stroke="#bbb" stroke-width="1.6" opacity="0.85"/>
<line x1="85.1" y1="270.0" x2="85.1" y2="220.0" stroke="#bbb" stroke-width="1.6" opacity="0.85"/>
<line x1="218.1" y1="137.0" x2="188.8" y2="127.4" stroke="#bbb" stroke-width="1.6" opacity="0.85"/>
<line x1="218.1" y1="137.0" x2="188.8" y2="96.6" stroke="#bbb" stroke-width="1.6" opacity="0.85"/>
<line x1="218.1" y1="137.0" x2="85.1" y2="220.0" stroke="#bbb" stroke-width="1.6" opacity="0.85"/>
<line x1="218.1" y1="137.0" x2="218.1" y2="87.0" stroke="#bbb" stroke-width="1.6" opacity="0.85"/>
<line x1="321.8" y1="260.4" x2="188.8" y2="393.4" stroke="#bbb" stroke-width="1.6" opacity="0.85"/>
<line x1="321.8" y1="260.4" x2="321.8" y2="229.6" stroke="#bbb" stroke-width="1.6" opacity="0.85"/>
<line x1="321.8" y1="260.4" x2="351.1" y2="220.0" stroke="#bbb" stroke-width="1.6" opacity="0.85"/>
<line x1="188.8" y1="393.4" x2="321.8" y2="229.6" stroke="#bbb" stroke-width="1.6" opacity="0.85"/>
<line x1="188.8" y1="393.4" x2="188.8" y2="362.6" stroke="#bbb" stroke-width="1.6" opacity="0.85"/>
<line x1="188.8" y1="393.4" x2="351.1" y2="220.0" stroke="#bbb" stroke-width="1.6" opacity="0.85"/>
<line x1="188.8" y1="393.4" x2="218.1" y2="353.0" stroke="#bbb" stroke-width="1.6" opacity="0.85"/>
<line x1="188.8" y1="393.4" x2="85.1" y2="220.0" stroke="#bbb" stroke-width="1.6" opacity="0.85"/>
<line x1="55.8" y1="260.4" x2="188.8" y2="127.4" stroke="#bbb" stroke-width="1.6" opacity="0.85"/>
<line x1="55.8" y1="260.4" x2="321.8" y2="229.6" stroke="#bbb" stroke-width="1.6" opacity="0.85"/>
<line x1="55.8" y1="260.4" x2="55.8" y2="229.6" stroke="#bbb" stroke-width="1.6" opacity="0.85"/>
<line x1="55.8" y1="260.4" x2="188.8" y2="96.6" stroke="#bbb" stroke-width="1.6" opacity="0.85"/>
<line x1="55.8" y1="260.4" x2="85.1" y2="220.0" stroke="#bbb" stroke-width="1.6" opacity="0.85"/>
<line x1="188.8" y1="127.4" x2="188.8" y2="96.6" stroke="#bbb" stroke-width="1.6" opacity="0.85"/>
<line x1="188.8" y1="127.4" x2="85.1" y2="220.0" stroke="#bbb" stroke-width="1.6" opacity="0.85"/>
<line x1="188.8" y1="127.4" x2="218.1" y2="87.0" stroke="#bbb" stroke-width="1.6" opacity="0.85"/>
<line x1="321.8" y1="229.6" x2="188.8" y2="362.6" stroke="#bbb" stroke-width="1.6" opacity="0.85"/>
<line x1="321.8" y1="229.6" x2="188.8" y2="96.6" stroke="#bbb" stroke-width="1.6" opacity="0.85"/>
<line x1="321.8" y1="229.6" x2="351.1" y2="220.0" stroke="#bbb" stroke-width="1.6" opacity="0.85"/>
<line x1="188.8" y1="362.6" x2="218.1" y2="353.0" stroke="#bbb" stroke-width="1.6" opacity="0.85"/>
<line x1="55.8" y1="229.6" x2="85.1" y2="220.0" stroke="#bbb" stroke-width="1.6" opacity="0.85"/>
<line x1="188.8" y1="96.6" x2="218.1" y2="353.0" stroke="#bbb" stroke-width="1.6" opacity="0.85"/>
<line x1="188.8" y1="96.6" x2="85.1" y2="220.0" stroke="#bbb" stroke-width="1.6" opacity="0.85"/>
<line x1="188.8" y1="96.6" x2="218.1" y2="87.0" stroke="#bbb" stroke-width="1.6" opacity="0.85"/>
<line x1="351.1" y1="220.0" x2="218.1" y2="353.0" stroke="#bbb" stroke-width="1.6" opacity="0.85"/>
<line x1="218.1" y1="353.0" x2="85.1" y2="220.0" stroke="#bbb" stroke-width="1.6" opacity="0.85"/>
<line x1="218.1" y1="353.0" x2="218.1" y2="87.0" stroke="#bbb" stroke-width="1.6" opacity="0.85"/>
<circle cx="369.2" cy="245.0" r="13.0" fill="#2874a6" stroke="white" stroke-width="1"/>
<circle cx="351.1" cy="270.0" r="11.2" fill="#2874a6" stroke="white" stroke-width="1"/>
<circle cx="321.8" cy="260.4" r="10.6" fill="#2874a6" stroke="white" stroke-width="1"/>
<circle cx="321.8" cy="229.6" r="13.0" fill="#2874a6" stroke="white" stroke-width="1"/>
<circle cx="351.1" cy="220.0" r="10.6" fill="#2874a6" stroke="white" stroke-width="1"/>
<circle cx="236.2" cy="378.0" r="13.5" fill="#c0392b" stroke="white" stroke-width="1"/>
<circle cx="218.1" cy="403.0" r="9.9" fill="#c0392b" stroke="white" stroke-width="1"/>
<circle cx="188.8" cy="393.4" r="11.8" fill="#c0392b" stroke="white" stroke-width="1"/>
<circle cx="188.8" cy="362.6" r="10.6" fill="#c0392b" stroke="white" stroke-width="1"/>
<circle cx="218.1" cy="353.0" r="13.5" fill="#c0392b" stroke="white" stroke-width="1"/>
<circle cx="103.2" cy="245.0" r="11.8" fill="#27ae60" stroke="white" stroke-width="1"/>
<circle cx="85.1" cy="270.0" r="11.2" fill="#27ae60" stroke="white" stroke-width="1"/>
<circle cx="55.8" cy="260.4" r="11.8" fill="#27ae60" stroke="white" stroke-width="1"/>
<circle cx="55.8" cy="229.6" r="10.6" fill="#27ae60" stroke="white" stroke-width="1"/>
<circle cx="85.1" cy="220.0" r="14.0" fill="#27ae60" stroke="white" stroke-width="1"/>
<circle cx="236.2" cy="112.0" r="11.8" fill="#8e44ad" stroke="white" stroke-width="1"/>
<circle cx="218.1" cy="137.0" r="11.2" fill="#8e44ad" stroke="white" stroke-width="1"/>
<circle cx="188.8" cy="127.4" r="10.6" fill="#8e44ad" stroke="white" stroke-width="1"/>
<circle cx="188.8" cy="96.6" r="13.5" fill="#8e44ad" stroke="white" stroke-width="1"/>
<circle cx="218.1" cy="87.0" r="11.2" fill="#8e44ad" stroke="white" stroke-width="1"/>
<text x="660.0" y="60" text-anchor="middle" font-size="13">through round 4</text>
<line x1="809.2" y1="245.0" x2="791.1" y2="270.0" stroke="#bbb" stroke-width="4.0" opacity="0.85"/>
<line x1="809.2" y1="245.0" x2="658.1" y2="137.0" stroke="#bbb" stroke-width="2.2" opacity="0.85"/>
<line x1="809.2" y1="245.0" x2="761.8" y2="260.4" stroke="#bbb" stroke-width="2.2" opacity="0.85"/>
<line x1="809.2" y1="245.0" x2="761.8" y2="229.6" stroke="#bbb" stroke-width="1.6" opacity="0.85"/>
<line x1="809.2" y1="245.0" x2="495.8" y2="229.6" stroke="#bbb" stroke-width="1.6" opacity="0.85"/>
<line x1="809.2" y1="245.0" x2="628.8" y2="96.6" stroke="#bbb" stroke-width="2.2" opacity="0.85"/>
<line x1="809.2" y1="245.0" x2="791.1" y2="220.0" stroke="#bbb" stroke-width="2.2" opacity="0.85"/>
<line x1="809.2" y1="245.0" x2="658.1" y2="353.0" stroke="#bbb" stroke-width="1.6" opacity="0.85"/>
<line x1="809.2" y1="245.0" x2="525.1" y2="220.0" stroke="#bbb" stroke-width="1.6" opacity="0.85"/>
<line x1="809.2" y1="245.0" x2="658.1" y2="87.0" stroke="#bbb" stroke-width="1.6" opacity="0.85"/>
<line x1="676.2" y1="378.0" x2="543.2" y2="245.0" stroke="#bbb" stroke-width="2.2" opacity="0.85"/>
<line x1="676.2" y1="378.0" x2="791.1" y2="270.0" stroke="#bbb" stroke-width="2.2" opacity="0.85"/>
<line x1="676.2" y1="378.0" x2="658.1" y2="403.0" stroke="#bbb" stroke-width="2.2" opacity="0.85"/>
<line x1="676.2" y1="378.0" x2="658.1" y2="137.0" stroke="#bbb" stroke-width="2.2" opacity="0.85"/>
<line x1="676.2" y1="378.0" x2="761.8" y2="260.4" stroke="#bbb" stroke-width="2.2" opacity="0.85"/>
<line x1="676.2" y1="378.0" x2="628.8" y2="393.4" stroke="#bbb" stroke-width="1.6" opacity="0.85"/>
<line x1="676.2" y1="378.0" x2="495.8" y2="260.4" stroke="#bbb" stroke-width="1.6" opacity="0.85"/>
<line x1="676.2" y1="378.0" x2="628.8" y2="362.6" stroke="#bbb" stroke-width="1.6" opacity="0.85"/>
<line x1="676.2" y1="378.0" x2="495.8" y2="229.6" stroke="#bbb" stroke-width="1.6" opacity="0.85"/>
<line x1="676.2" y1="378.0" x2="628.8" y2="96.6" stroke="#bbb" stroke-width="1.6" opacity="0.85"/>
<line x1="676.2" y1="378.0" x2="658.1" y2="353.0" stroke="#bbb" stroke-width="1.6" opacity="0.85"/>
<line x1="543.2" y1="245.0" x2="525.1" y2="270.0" stroke="#bbb" stroke-width="3.4" opacity="0.85"/>
<line x1="543.2" y1="245.0" x2="495.8" y2="260.4" stroke="#bbb" stroke-width="2.2" opacity="0.85"/>
<line x1="543.2" y1="245.0" x2="628.8" y2="362.6" stroke="#bbb" stroke-width="2.2" opacity="0.85"/>
<line x1="543.2" y1="245.0" x2="495.8" y2="229.6" stroke="#bbb" stroke-width="1.6" opacity="0.85"/>
<line x1="543.2" y1="245.0" x2="658.1" y2="353.0" stroke="#bbb" stroke-width="2.2" opacity="0.85"/>
<line x1="543.2" y1="245.0" x2="525.1" y2="220.0" stroke="#bbb" stroke-width="1.6" opacity="0.85"/>
<line x1="543.2" y1="245.0" x2="658.1" y2="87.0" stroke="#bbb" stroke-width="1.6" opacity="0.85"/>
<line x1="676.2" y1="112.0" x2="658.1" y2="403.0" stroke="#bbb" stroke-width="2.2" opacity="0.85"/>
<line x1="676.2" y1="112.0" x2="525.1" y2="270.0" stroke="#bbb" stroke-width="2.8" opacity="0.85"/>
<line x1="676.2" y1="112.0" x2="658.1" y2="137.0" stroke="#bbb" stroke-width="2.2" opacity="0.85"/>
<line x1="676.2" y1="112.0" x2="628.8" y2="127.4" stroke="#bbb" stroke-width="2.2" opacity="0.85"/>
<line x1="676.2" y1="112.0" x2="761.8" y2="229.6" stroke="#bbb" stroke-width="1.6" opacity="0.85"/>
<line x1="676.2" y1="112.0" x2="628.8" y2="96.6" stroke="#bbb" stroke-width="2.2" opacity="0.85"/>
<line x1="676.2" y1="112.0" x2="525.1" y2="220.0" stroke="#bbb" stroke-width="1.6" opacity="0.85"/>
<line x1="676.2" y1="112.0" x2="658.1" y2="87.0" stroke="#bbb" stroke-width="1.6" opacity="0.85"/>
<line x1="791.1" y1="270.0" x2="761.8" y2="260.4" stroke="#bbb" stroke-width="1.6" opacity="0.85"/>
<line x1="791.1" y1="270.0" x2="761.8" y2="229.6" stroke="#bbb" stroke-width="1.6" opacity="0.85"/>
<line x1="791.1" y1="270.0" x2="628.8" y2="96.6" stroke="#bbb" stroke-width="1.6" opacity="0.85"/>
<line x1="791.1" y1="270.0" x2="791.1" y2="220.0" stroke="#bbb" stroke-width="1.6" opacity="0.85"/>
<line x1="791.1" y1="270.0" x2="525.1" y2="220.0" stroke="#bbb" stroke-width="1.6" opacity="0.85"/>
<line x1="658.1" y1="403.0" x2="628.8" y2="393.4" stroke="#bbb" stroke-width="2.2" opacity="0.85"/>
<line x1="658.1" y1="403.0" x2="628.8" y2="362.6" stroke="#bbb" stroke-width="2.2" opacity="0.85"/>
<line x1="658.1" y1="403.0" x2="658.1" y2="353.0" stroke="#bbb" stroke-width="1.6" opacity="0.85"/>
<line x1="525.1" y1="270.0" x2="495.8" y2="260.4" stroke="#bbb" stroke-width="1.6" opacity="0.85"/>
<line x1="525.1" y1="270.0" x2="761.8" y2="229.6" stroke="#bbb" stroke-width="1.6" opacity="0.85"/>
<line x1="525.1" y1="270.0" x2="495.8" y2="229.6" stroke="#bbb" stroke-width="1.6" opacity="0.85"/>
<line x1="525.1" y1="270.0" x2="658.1" y2="353.0" stroke="#bbb" stroke-width="1.6" opacity="0.85"/>
<line x1="525.1" y1="270.0" x2="525.1" y2="220.0" stroke="#bbb" stroke-width="1.6" opacity="0.85"/>
<line x1="658.1" y1="137.0" x2="628.8" y2="127.4" stroke="#bbb" stroke-width="2.2" opacity="0.85"/>
<line x1="658.1" y1="137.0" x2="628.8" y2="96.6" stroke="#bbb" stroke-width="2.2" opacity="0.85"/>
<line x1="658.1" y1="137.0" x2="525.1" y2="220.0" stroke="#bbb" stroke-width="1.6" opacity="0.85"/>
<line x1="658.1" y1="137.0" x2="658.1" y2="87.0" stroke="#bbb" stroke-width="1.6" opacity="0.85"/>
<line x1="761.8" y1="260.4" x2="628.8" y2="393.4" stroke="#bbb" stroke-width="2.2" opacity="0.85"/>
<line x1="761.8" y1="260.4" x2="761.8" y2="229.6" stroke="#bbb" stroke-width="1.6" opacity="0.85"/>
<line x1="761.8" y1="260.4" x2="791.1" y2="220.0" stroke="#bbb" stroke-width="2.2" opacity="0.85"/>
<line x1="628.8" y1="393.4" x2="761.8" y2="229.6" stroke="#bbb" stroke-width="1.6" opacity="0.85"/>
<line x1="628.8" y1="393.4" x2="628.8" y2="362.6" stroke="#bbb" stroke-width="2.2" opacity="0.85"/>
<line x1="628.8" y1="393.4" x2="791.1" y2="220.0" stroke="#bbb" stroke-width="1.6" opacity="0.85"/>
<line x1="628.8" y1="393.4" x2="658.1" y2="353.0" stroke="#bbb" stroke-width="1.6" opacity="0.85"/>
<line x1="628.8" y1="393.4" x2="525.1" y2="220.0" stroke="#bbb" stroke-width="1.6" opacity="0.85"/>
<line x1="495.8" y1="260.4" x2="628.8" y2="127.4" stroke="#bbb" stroke-width="2.2" opacity="0.85"/>
<line x1="495.8" y1="260.4" x2="761.8" y2="229.6" stroke="#bbb" stroke-width="1.6" opacity="0.85"/>
<line x1="495.8" y1="260.4" x2="495.8" y2="229.6" stroke="#bbb" stroke-width="1.6" opacity="0.85"/>
<line x1="495.8" y1="260.4" x2="628.8" y2="96.6" stroke="#bbb" stroke-width="1.6" opacity="0.85"/>
<line x1="495.8" y1="260.4" x2="525.1" y2="220.0" stroke="#bbb" stroke-width="1.6" opacity="0.85"/>
<line x1="628.8" y1="127.4" x2="628.8" y2="96.6" stroke="#bbb" stroke-width="1.6" opacity="0.85"/>
<line x1="628.8" y1="127.4" x2="525.1" y2="220.0" stroke="#bbb" stroke-width="1.6" opacity="0.85"/>
<line x1="628.8" y1="127.4" x2="658.1" y2="87.0" stroke="#bbb" stroke-width="1.6" opacity="0.85"/>
<line x1="761.8" y1="229.6" x2="628.8" y2="362.6" stroke="#bbb" stroke-width="1.6" opacity="0.85"/>
<line x1="761.8" y1="229.6" x2="628.8" y2="96.6" stroke="#bbb" stroke-width="1.6" opacity="0.85"/>
<line x1="761.8" y1="229.6" x2="791.1" y2="220.0" stroke="#bbb" stroke-width="1.6" opacity="0.85"/>
<line x1="628.8" y1="362.6" x2="658.1" y2="353.0" stroke="#bbb" stroke-width="1.6" opacity="0.85"/>
<line x1="495.8" y1="229.6" x2="525.1" y2="220.0" stroke="#bbb" stroke-width="1.6" opacity="0.85"/>
<line x1="628.8" y1="96.6" x2="658.1" y2="353.0" stroke="#bbb" stroke-width="1.6" opacity="0.85"/>
<line x1="628.8" y1="96.6" x2="525.1" y2="220.0" stroke="#bbb" stroke-width="1.6" opacity="0.85"/>
<line x1="628.8" y1="96.6" x2="658.1" y2="87.0" stroke="#bbb" stroke-width="1.6" opacity="0.85"/>
<line x1="791.1" y1="220.0" x2="658.1" y2="353.0" stroke="#bbb" stroke-width="1.6" opacity="0.85"/>
<line x1="658.1" y1="353.0" x2="525.1" y2="220.0" stroke="#bbb" stroke-width="1.6" opacity="0.85"/>
<line x1="658.1" y1="353.0" x2="658.1" y2="87.0" stroke="#bbb" stroke-width="1.6" opacity="0.85"/>
<circle cx="809.2" cy="245.0" r="13.0" fill="#2874a6" stroke="white" stroke-width="1"/>
<circle cx="791.1" cy="270.0" r="11.2" fill="#2874a6" stroke="white" stroke-width="1"/>
<circle cx="761.8" cy="260.4" r="10.6" fill="#2874a6" stroke="white" stroke-width="1"/>
<circle cx="761.8" cy="229.6" r="13.0" fill="#2874a6" stroke="white" stroke-width="1"/>
<circle cx="791.1" cy="220.0" r="10.6" fill="#2874a6" stroke="white" stroke-width="1"/>
<circle cx="676.2" cy="378.0" r="13.5" fill="#c0392b" stroke="white" stroke-width="1"/>
<circle cx="658.1" cy="403.0" r="9.9" fill="#c0392b" stroke="white" stroke-width="1"/>
<circle cx="628.8" cy="393.4" r="11.8" fill="#c0392b" stroke="white" stroke-width="1"/>
<circle cx="628.8" cy="362.6" r="10.6" fill="#c0392b" stroke="white" stroke-width="1"/>
<circle cx="658.1" cy="353.0" r="13.5" fill="#c0392b" stroke="white" stroke-width="1"/>
<circle cx="543.2" cy="245.0" r="11.8" fill="#27ae60" stroke="white" stroke-width="1"/>
<circle cx="525.1" cy="270.0" r="11.2" fill="#27ae60" stroke="white" stroke-width="1"/>
<circle cx="495.8" cy="260.4" r="11.8" fill="#27ae60" stroke="white" stroke-width="1"/>
<circle cx="495.8" cy="229.6" r="10.6" fill="#27ae60" stroke="white" stroke-width="1"/>
<circle cx="525.1" cy="220.0" r="14.0" fill="#27ae60" stroke="white" stroke-width="1"/>
<circle cx="676.2" cy="112.0" r="11.8" fill="#8e44ad" stroke="white" stroke-width="1"/>
<circle cx="658.1" cy="137.0" r="11.2" fill="#8e44ad" stroke="white" stroke-width="1"/>
<circle cx="628.8" cy="127.4" r="10.6" fill="#8e44ad" stroke="white" stroke-width="1"/>
<circle cx="628.8" cy="96.6" r="13.5" fill="#8e44ad" stroke="white" stroke-width="1"/>
<circle cx="658.1" cy="87.0" r="11.2" fill="#8e44ad" stroke="white" stroke-width="1"/>
<line x1="440" y1="30" x2="440" y2="500" stroke="#ddd" stroke-width="1"/>
<text x="1100.0" y="60" text-anchor="middle" font-size="13">through round 9</text>
<line x1="1249.2" y1="245.0" x2="1231.1" y2="270.0" stroke="#bbb" stroke-width="4.0" opacity="0.85"/>
<line x1="1249.2" y1="245.0" x2="1098.1" y2="137.0" stroke="#bbb" stroke-width="3.4" opacity="0.85"/>
<line x1="1249.2" y1="245.0" x2="1201.8" y2="260.4" stroke="#bbb" stroke-width="3.4" opacity="0.85"/>
<line x1="1249.2" y1="245.0" x2="1201.8" y2="229.6" stroke="#bbb" stroke-width="1.6" opacity="0.85"/>
<line x1="1249.2" y1="245.0" x2="935.8" y2="229.6" stroke="#bbb" stroke-width="1.6" opacity="0.85"/>
<line x1="1249.2" y1="245.0" x2="1068.8" y2="96.6" stroke="#bbb" stroke-width="2.2" opacity="0.85"/>
<line x1="1249.2" y1="245.0" x2="1231.1" y2="220.0" stroke="#bbb" stroke-width="2.8" opacity="0.85"/>
<line x1="1249.2" y1="245.0" x2="1098.1" y2="353.0" stroke="#bbb" stroke-width="2.2" opacity="0.85"/>
<line x1="1249.2" y1="245.0" x2="965.1" y2="220.0" stroke="#bbb" stroke-width="2.2" opacity="0.85"/>
<line x1="1249.2" y1="245.0" x2="1098.1" y2="87.0" stroke="#bbb" stroke-width="2.2" opacity="0.85"/>
<line x1="1116.2" y1="378.0" x2="983.2" y2="245.0" stroke="#bbb" stroke-width="2.8" opacity="0.85"/>
<line x1="1116.2" y1="378.0" x2="1231.1" y2="270.0" stroke="#bbb" stroke-width="4.0" opacity="0.85"/>
<line x1="1116.2" y1="378.0" x2="1098.1" y2="403.0" stroke="#bbb" stroke-width="2.8" opacity="0.85"/>
<line x1="1116.2" y1="378.0" x2="1098.1" y2="137.0" stroke="#bbb" stroke-width="2.8" opacity="0.85"/>
<line x1="1116.2" y1="378.0" x2="1201.8" y2="260.4" stroke="#bbb" stroke-width="2.8" opacity="0.85"/>
<line x1="1116.2" y1="378.0" x2="1068.8" y2="393.4" stroke="#bbb" stroke-width="2.8" opacity="0.85"/>
<line x1="1116.2" y1="378.0" x2="935.8" y2="260.4" stroke="#bbb" stroke-width="2.8" opacity="0.85"/>
<line x1="1116.2" y1="378.0" x2="1068.8" y2="362.6" stroke="#bbb" stroke-width="2.8" opacity="0.85"/>
<line x1="1116.2" y1="378.0" x2="935.8" y2="229.6" stroke="#bbb" stroke-width="1.6" opacity="0.85"/>
<line x1="1116.2" y1="378.0" x2="1068.8" y2="96.6" stroke="#bbb" stroke-width="2.2" opacity="0.85"/>
<line x1="1116.2" y1="378.0" x2="1098.1" y2="353.0" stroke="#bbb" stroke-width="2.2" opacity="0.85"/>
<line x1="983.2" y1="245.0" x2="965.1" y2="270.0" stroke="#bbb" stroke-width="4.0" opacity="0.85"/>
<line x1="983.2" y1="245.0" x2="935.8" y2="260.4" stroke="#bbb" stroke-width="3.4" opacity="0.85"/>
<line x1="983.2" y1="245.0" x2="1068.8" y2="362.6" stroke="#bbb" stroke-width="2.8" opacity="0.85"/>
<line x1="983.2" y1="245.0" x2="935.8" y2="229.6" stroke="#bbb" stroke-width="1.6" opacity="0.85"/>
<line x1="983.2" y1="245.0" x2="1098.1" y2="353.0" stroke="#bbb" stroke-width="2.2" opacity="0.85"/>
<line x1="983.2" y1="245.0" x2="965.1" y2="220.0" stroke="#bbb" stroke-width="2.2" opacity="0.85"/>
<line x1="983.2" y1="245.0" x2="1098.1" y2="87.0" stroke="#bbb" stroke-width="2.8" opacity="0.85"/>
<line x1="1116.2" y1="112.0" x2="1098.1" y2="403.0" stroke="#bbb" stroke-width="3.4" opacity="0.85"/>
<line x1="1116.2" y1="112.0" x2="965.1" y2="270.0" stroke="#bbb" stroke-width="4.0" opacity="0.85"/>
<line x1="1116.2" y1="112.0" x2="1098.1" y2="137.0" stroke="#bbb" stroke-width="3.4" opacity="0.85"/>
<line x1="1116.2" y1="112.0" x2="1068.8" y2="127.4" stroke="#bbb" stroke-width="2.8" opacity="0.85"/>
<line x1="1116.2" y1="112.0" x2="1201.8" y2="229.6" stroke="#bbb" stroke-width="2.2" opacity="0.85"/>
<line x1="1116.2" y1="112.0" x2="1068.8" y2="96.6" stroke="#bbb" stroke-width="2.2" opacity="0.85"/>
<line x1="1116.2" y1="112.0" x2="965.1" y2="220.0" stroke="#bbb" stroke-width="2.2" opacity="0.85"/>
<line x1="1116.2" y1="112.0" x2="1098.1" y2="87.0" stroke="#bbb" stroke-width="2.2" opacity="0.85"/>
<line x1="1231.1" y1="270.0" x2="1201.8" y2="260.4" stroke="#bbb" stroke-width="2.2" opacity="0.85"/>
<line x1="1231.1" y1="270.0" x2="1201.8" y2="229.6" stroke="#bbb" stroke-width="1.6" opacity="0.85"/>
<line x1="1231.1" y1="270.0" x2="1068.8" y2="96.6" stroke="#bbb" stroke-width="1.6" opacity="0.85"/>
<line x1="1231.1" y1="270.0" x2="1231.1" y2="220.0" stroke="#bbb" stroke-width="2.2" opacity="0.85"/>
<line x1="1231.1" y1="270.0" x2="965.1" y2="220.0" stroke="#bbb" stroke-width="1.6" opacity="0.85"/>
<line x1="1098.1" y1="403.0" x2="1068.8" y2="393.4" stroke="#bbb" stroke-width="3.4" opacity="0.85"/>
<line x1="1098.1" y1="403.0" x2="1068.8" y2="362.6" stroke="#bbb" stroke-width="3.4" opacity="0.85"/>
<line x1="1098.1" y1="403.0" x2="1098.1" y2="353.0" stroke="#bbb" stroke-width="2.2" opacity="0.85"/>
<line x1="965.1" y1="270.0" x2="935.8" y2="260.4" stroke="#bbb" stroke-width="2.2" opacity="0.85"/>
<line x1="965.1" y1="270.0" x2="1201.8" y2="229.6" stroke="#bbb" stroke-width="1.6" opacity="0.85"/>
<line x1="965.1" y1="270.0" x2="935.8" y2="229.6" stroke="#bbb" stroke-width="1.6" opacity="0.85"/>
<line x1="965.1" y1="270.0" x2="1098.1" y2="353.0" stroke="#bbb" stroke-width="1.6" opacity="0.85"/>
<line x1="965.1" y1="270.0" x2="965.1" y2="220.0" stroke="#bbb" stroke-width="1.6" opacity="0.85"/>
<line x1="1098.1" y1="137.0" x2="1068.8" y2="127.4" stroke="#bbb" stroke-width="2.8" opacity="0.85"/>
<line x1="1098.1" y1="137.0" x2="1068.8" y2="96.6" stroke="#bbb" stroke-width="2.2" opacity="0.85"/>
<line x1="1098.1" y1="137.0" x2="965.1" y2="220.0" stroke="#bbb" stroke-width="2.2" opacity="0.85"/>
<line x1="1098.1" y1="137.0" x2="1098.1" y2="87.0" stroke="#bbb" stroke-width="2.2" opacity="0.85"/>
<line x1="1201.8" y1="260.4" x2="1068.8" y2="393.4" stroke="#bbb" stroke-width="2.8" opacity="0.85"/>
<line x1="1201.8" y1="260.4" x2="1201.8" y2="229.6" stroke="#bbb" stroke-width="2.2" opacity="0.85"/>
<line x1="1201.8" y1="260.4" x2="1231.1" y2="220.0" stroke="#bbb" stroke-width="2.8" opacity="0.85"/>
<line x1="1068.8" y1="393.4" x2="1201.8" y2="229.6" stroke="#bbb" stroke-width="2.2" opacity="0.85"/>
<line x1="1068.8" y1="393.4" x2="1068.8" y2="362.6" stroke="#bbb" stroke-width="2.8" opacity="0.85"/>
<line x1="1068.8" y1="393.4" x2="1231.1" y2="220.0" stroke="#bbb" stroke-width="2.8" opacity="0.85"/>
<line x1="1068.8" y1="393.4" x2="1098.1" y2="353.0" stroke="#bbb" stroke-width="2.2" opacity="0.85"/>
<line x1="1068.8" y1="393.4" x2="965.1" y2="220.0" stroke="#bbb" stroke-width="2.2" opacity="0.85"/>
<line x1="935.8" y1="260.4" x2="1068.8" y2="127.4" stroke="#bbb" stroke-width="2.8" opacity="0.85"/>
<line x1="935.8" y1="260.4" x2="1201.8" y2="229.6" stroke="#bbb" stroke-width="2.2" opacity="0.85"/>
<line x1="935.8" y1="260.4" x2="935.8" y2="229.6" stroke="#bbb" stroke-width="1.6" opacity="0.85"/>
<line x1="935.8" y1="260.4" x2="1068.8" y2="96.6" stroke="#bbb" stroke-width="2.2" opacity="0.85"/>
<line x1="935.8" y1="260.4" x2="965.1" y2="220.0" stroke="#bbb" stroke-width="2.2" opacity="0.85"/>
<line x1="1068.8" y1="127.4" x2="1068.8" y2="96.6" stroke="#bbb" stroke-width="2.8" opacity="0.85"/>
<line x1="1068.8" y1="127.4" x2="965.1" y2="220.0" stroke="#bbb" stroke-width="2.2" opacity="0.85"/>
<line x1="1068.8" y1="127.4" x2="1098.1" y2="87.0" stroke="#bbb" stroke-width="2.2" opacity="0.85"/>
<line x1="1201.8" y1="229.6" x2="1068.8" y2="362.6" stroke="#bbb" stroke-width="2.2" opacity="0.85"/>
<line x1="1201.8" y1="229.6" x2="1068.8" y2="96.6" stroke="#bbb" stroke-width="1.6" opacity="0.85"/>
<line x1="1201.8" y1="229.6" x2="1231.1" y2="220.0" stroke="#bbb" stroke-width="2.2" opacity="0.85"/>
<line x1="1068.8" y1="362.6" x2="1098.1" y2="353.0" stroke="#bbb" stroke-width="2.2" opacity="0.85"/>
<line x1="935.8" y1="229.6" x2="965.1" y2="220.0" stroke="#bbb" stroke-width="1.6" opacity="0.85"/>
<line x1="1068.8" y1="96.6" x2="1098.1" y2="353.0" stroke="#bbb" stroke-width="2.2" opacity="0.85"/>
<line x1="1068.8" y1="96.6" x2="965.1" y2="220.0" stroke="#bbb" stroke-width="1.6" opacity="0.85"/>
<line x1="1068.8" y1="96.6" x2="1098.1" y2="87.0" stroke="#bbb" stroke-width="1.6" opacity="0.85"/>
<line x1="1231.1" y1="220.0" x2="1098.1" y2="353.0" stroke="#bbb" stroke-width="1.6" opacity="0.85"/>
<line x1="1098.1" y1="353.0" x2="965.1" y2="220.0" stroke="#bbb" stroke-width="1.6" opacity="0.85"/>
<line x1="1098.1" y1="353.0" x2="1098.1" y2="87.0" stroke="#bbb" stroke-width="1.6" opacity="0.85"/>
<circle cx="1249.2" cy="245.0" r="13.0" fill="#2874a6" stroke="white" stroke-width="1"/>
<circle cx="1231.1" cy="270.0" r="11.2" fill="#2874a6" stroke="white" stroke-width="1"/>
<circle cx="1201.8" cy="260.4" r="10.6" fill="#2874a6" stroke="white" stroke-width="1"/>
<circle cx="1201.8" cy="229.6" r="13.0" fill="#2874a6" stroke="white" stroke-width="1"/>
<circle cx="1231.1" cy="220.0" r="10.6" fill="#2874a6" stroke="white" stroke-width="1"/>
<circle cx="1116.2" cy="378.0" r="13.5" fill="#c0392b" stroke="white" stroke-width="1"/>
<circle cx="1098.1" cy="403.0" r="9.9" fill="#c0392b" stroke="white" stroke-width="1"/>
<circle cx="1068.8" cy="393.4" r="11.8" fill="#c0392b" stroke="white" stroke-width="1"/>
<circle cx="1068.8" cy="362.6" r="10.6" fill="#c0392b" stroke="white" stroke-width="1"/>
<circle cx="1098.1" cy="353.0" r="13.5" fill="#c0392b" stroke="white" stroke-width="1"/>
<circle cx="983.2" cy="245.0" r="11.8" fill="#27ae60" stroke="white" stroke-width="1"/>
<circle cx="965.1" cy="270.0" r="11.2" fill="#27ae60" stroke="white" stroke-width="1"/>
<circle cx="935.8" cy="260.4" r="11.8" fill="#27ae60" stroke="white" stroke-width="1"/>
<circle cx="935.8" cy="229.6" r="10.6" fill="#27ae60" stroke="white" stroke-width="1"/>
<circle cx="965.1" cy="220.0" r="14.0" fill="#27ae60" stroke="white" stroke-width="1"/>
<circle cx="1116.2" cy="112.0" r="11.8" fill="#8e44ad" stroke="white" stroke-width="1"/>
<circle cx="1098.1" cy="137.0" r="11.2" fill="#8e44ad" stroke="white" stroke-width="1"/>
<circle cx="1068.8" cy="127.4" r="10.6" fill="#8e44ad" stroke="white" stroke-width="1"/>
<circle cx="1068.8" cy="96.6" r="13.5" fill="#8e44ad" stroke="white" stroke-width="1"/>
<circle cx="1098.1" cy="87.0" r="11.2" fill="#8e44ad" stroke="white" stroke-width="1"/>
<line x1="880" y1="30" x2="880" y2="500" stroke="#ddd" stroke-width="1"/>
<text x="1540.0" y="60" text-anchor="middle" font-size="13">through round 14</text>
<line x1="1689.2" y1="245.0" x2="1671.1" y2="270.0" stroke="#bbb" stroke-width="4.0" opacity="0.85"/>
<line x1="1689.2" y1="245.0" x2="1538.1" y2="137.0" stroke="#bbb" stroke-width="4.0" opacity="0.85"/>
<line x1="1689.2" y1="245.0" x2="1641.8" y2="260.4" stroke="#bbb" stroke-width="4.0" opacity="0.85"/>
<line x1="1689.2" y1="245.0" x2="1641.8" y2="229.6" stroke="#bbb" stroke-width="2.2" opacity="0.85"/>
<line x1="1689.2" y1="245.0" x2="1375.8" y2="229.6" stroke="#bbb" stroke-width="1.6" opacity="0.85"/>
<line x1="1689.2" y1="245.0" x2="1508.8" y2="96.6" stroke="#bbb" stroke-width="2.8" opacity="0.85"/>
<line x1="1689.2" y1="245.0" x2="1671.1" y2="220.0" stroke="#bbb" stroke-width="3.4" opacity="0.85"/>
<line x1="1689.2" y1="245.0" x2="1538.1" y2="353.0" stroke="#bbb" stroke-width="4.0" opacity="0.85"/>
<line x1="1689.2" y1="245.0" x2="1405.1" y2="220.0" stroke="#bbb" stroke-width="4.0" opacity="0.85"/>
<line x1="1689.2" y1="245.0" x2="1538.1" y2="87.0" stroke="#bbb" stroke-width="2.2" opacity="0.85"/>
<line x1="1556.2" y1="378.0" x2="1423.2" y2="245.0" stroke="#bbb" stroke-width="4.0" opacity="0.85"/>
<line x1="1556.2" y1="378.0" x2="1671.1" y2="270.0" stroke="#bbb" stroke-width="4.0" opacity="0.85"/>
<line x1="1556.2" y1="378.0" x2="1538.1" y2="403.0" stroke="#bbb" stroke-width="3.4" opacity="0.85"/>
<line x1="1556.2" y1="378.0" x2="1538.1" y2="137.0" stroke="#bbb" stroke-width="4.0" opacity="0.85"/>
<line x1="1556.2" y1="378.0" x2="1641.8" y2="260.4" stroke="#bbb" stroke-width="4.0" opacity="0.85"/>
<line x1="1556.2" y1="378.0" x2="1508.8" y2="393.4" stroke="#bbb" stroke-width="3.4" opacity="0.85"/>
<line x1="1556.2" y1="378.0" x2="1375.8" y2="260.4" stroke="#bbb" stroke-width="2.8" opacity="0.85"/>
<line x1="1556.2" y1="378.0" x2="1508.8" y2="362.6" stroke="#bbb" stroke-width="4.0" opacity="0.85"/>
<line x1="1556.2" y1="378.0" x2="1375.8" y2="229.6" stroke="#bbb" stroke-width="1.6" opacity="0.85"/>
<line x1="1556.2" y1="378.0" x2="1508.8" y2="96.6" stroke="#bbb" stroke-width="2.8" opacity="0.85"/>
<line x1="1556.2" y1="378.0" x2="1538.1" y2="353.0" stroke="#bbb" stroke-width="2.8" opacity="0.85"/>
<line x1="1423.2" y1="245.0" x2="1405.1" y2="270.0" stroke="#bbb" stroke-width="4.0" opacity="0.85"/>
<line x1="1423.2" y1="245.0" x2="1375.8" y2="260.4" stroke="#bbb" stroke-width="3.4" opacity="0.85"/>
<line x1="1423.2" y1="245.0" x2="1508.8" y2="362.6" stroke="#bbb" stroke-width="4.0" opacity="0.85"/>
<line x1="1423.2" y1="245.0" x2="1375.8" y2="229.6" stroke="#bbb" stroke-width="1.6" opacity="0.85"/>
<line x1="1423.2" y1="245.0" x2="1538.1" y2="353.0" stroke="#bbb" stroke-width="3.4" opacity="0.85"/>
<line x1="1423.2" y1="245.0" x2="1405.1" y2="220.0" stroke="#bbb" stroke-width="2.8" opacity="0.85"/>
<line x1="1423.2" y1="245.0" x2="1538.1" y2="87.0" stroke="#bbb" stroke-width="3.4" opacity="0.85"/>
<line x1="1556.2" y1="112.0" x2="1538.1" y2="403.0" stroke="#bbb" stroke-width="4.0" opacity="0.85"/>
<line x1="1556.2" y1="112.0" x2="1405.1" y2="270.0" stroke="#bbb" stroke-width="4.0" opacity="0.85"/>
<line x1="1556.2" y1="112.0" x2="1538.1" y2="137.0" stroke="#bbb" stroke-width="4.0" opacity="0.85"/>
<line x1="1556.2" y1="112.0" x2="1508.8" y2="127.4" stroke="#bbb" stroke-width="4.0" opacity="0.85"/>
<line x1="1556.2" y1="112.0" x2="1641.8" y2="229.6" stroke="#bbb" stroke-width="2.8" opacity="0.85"/>
<line x1="1556.2" y1="112.0" x2="1508.8" y2="96.6" stroke="#bbb" stroke-width="2.8" opacity="0.85"/>
<line x1="1556.2" y1="112.0" x2="1405.1" y2="220.0" stroke="#bbb" stroke-width="2.2" opacity="0.85"/>
<line x1="1556.2" y1="112.0" x2="1538.1" y2="87.0" stroke="#bbb" stroke-width="2.8" opacity="0.85"/>
<line x1="1671.1" y1="270.0" x2="1641.8" y2="260.4" stroke="#bbb" stroke-width="4.0" opacity="0.85"/>
<line x1="1671.1" y1="270.0" x2="1641.8" y2="229.6" stroke="#bbb" stroke-width="1.6" opacity="0.85"/>
<line x1="1671.1" y1="270.0" x2="1508.8" y2="96.6" stroke="#bbb" stroke-width="2.8" opacity="0.85"/>
<line x1="1671.1" y1="270.0" x2="1671.1" y2="220.0" stroke="#bbb" stroke-width="2.2" opacity="0.85"/>
<line x1="1671.1" y1="270.0" x2="1405.1" y2="220.0" stroke="#bbb" stroke-width="1.6" opacity="0.85"/>
<line x1="1538.1" y1="403.0" x2="1508.8" y2="393.4" stroke="#bbb" stroke-width="4.0" opacity="0.85"/>
<line x1="1538.1" y1="403.0" x2="1508.8" y2="362.6" stroke="#bbb" stroke-width="4.0" opacity="0.85"/>
<line x1="1538.1" y1="403.0" x2="1538.1" y2="353.0" stroke="#bbb" stroke-width="2.8" opacity="0.85"/>
<line x1="1405.1" y1="270.0" x2="1375.8" y2="260.4" stroke="#bbb" stroke-width="2.2" opacity="0.85"/>
<line x1="1405.1" y1="270.0" x2="1641.8" y2="229.6" stroke="#bbb" stroke-width="1.6" opacity="0.85"/>
<line x1="1405.1" y1="270.0" x2="1375.8" y2="229.6" stroke="#bbb" stroke-width="1.6" opacity="0.85"/>
<line x1="1405.1" y1="270.0" x2="1538.1" y2="353.0" stroke="#bbb" stroke-width="1.6" opacity="0.85"/>
<line x1="1405.1" y1="270.0" x2="1405.1" y2="220.0" stroke="#bbb" stroke-width="1.6" opacity="0.85"/>
<line x1="1538.1" y1="137.0" x2="1508.8" y2="127.4" stroke="#bbb" stroke-width="4.0" opacity="0.85"/>
<line x1="1538.1" y1="137.0" x2="1508.8" y2="96.6" stroke="#bbb" stroke-width="2.8" opacity="0.85"/>
<line x1="1538.1" y1="137.0" x2="1405.1" y2="220.0" stroke="#bbb" stroke-width="2.2" opacity="0.85"/>
<line x1="1538.1" y1="137.0" x2="1538.1" y2="87.0" stroke="#bbb" stroke-width="2.8" opacity="0.85"/>
<line x1="1641.8" y1="260.4" x2="1508.8" y2="393.4" stroke="#bbb" stroke-width="3.4" opacity="0.85"/>
<line x1="1641.8" y1="260.4" x2="1641.8" y2="229.6" stroke="#bbb" stroke-width="2.8" opacity="0.85"/>
<line x1="1641.8" y1="260.4" x2="1671.1" y2="220.0" stroke="#bbb" stroke-width="3.4" opacity="0.85"/>
<line x1="1508.8" y1="393.4" x2="1641.8" y2="229.6" stroke="#bbb" stroke-width="2.2" opacity="0.85"/>
<line x1="1508.8" y1="393.4" x2="1508.8" y2="362.6" stroke="#bbb" stroke-width="3.4" opacity="0.85"/>
<line x1="1508.8" y1="393.4" x2="1671.1" y2="220.0" stroke="#bbb" stroke-width="2.8" opacity="0.85"/>
<line x1="1508.8" y1="393.4" x2="1538.1" y2="353.0" stroke="#bbb" stroke-width="2.2" opacity="0.85"/>
<line x1="1508.8" y1="393.4" x2="1405.1" y2="220.0" stroke="#bbb" stroke-width="2.2" opacity="0.85"/>
<line x1="1375.8" y1="260.4" x2="1508.8" y2="127.4" stroke="#bbb" stroke-width="3.4" opacity="0.85"/>
<line x1="1375.8" y1="260.4" x2="1641.8" y2="229.6" stroke="#bbb" stroke-width="2.2" opacity="0.85"/>
<line x1="1375.8" y1="260.4" x2="1375.8" y2="229.6" stroke="#bbb" stroke-width="1.6" opacity="0.85"/>
<line x1="1375.8" y1="260.4" x2="1508.8" y2="96.6" stroke="#bbb" stroke-width="2.8" opacity="0.85"/>
<line x1="1375.8" y1="260.4" x2="1405.1" y2="220.0" stroke="#bbb" stroke-width="2.8" opacity="0.85"/>
<line x1="1508.8" y1="127.4" x2="1508.8" y2="96.6" stroke="#bbb" stroke-width="3.4" opacity="0.85"/>
<line x1="1508.8" y1="127.4" x2="1405.1" y2="220.0" stroke="#bbb" stroke-width="2.8" opacity="0.85"/>
<line x1="1508.8" y1="127.4" x2="1538.1" y2="87.0" stroke="#bbb" stroke-width="3.4" opacity="0.85"/>
<line x1="1641.8" y1="229.6" x2="1508.8" y2="362.6" stroke="#bbb" stroke-width="2.2" opacity="0.85"/>
<line x1="1641.8" y1="229.6" x2="1508.8" y2="96.6" stroke="#bbb" stroke-width="2.2" opacity="0.85"/>
<line x1="1641.8" y1="229.6" x2="1671.1" y2="220.0" stroke="#bbb" stroke-width="2.2" opacity="0.85"/>
<line x1="1508.8" y1="362.6" x2="1538.1" y2="353.0" stroke="#bbb" stroke-width="3.4" opacity="0.85"/>
<line x1="1375.8" y1="229.6" x2="1405.1" y2="220.0" stroke="#bbb" stroke-width="1.6" opacity="0.85"/>
<line x1="1508.8" y1="96.6" x2="1538.1" y2="353.0" stroke="#bbb" stroke-width="2.2" opacity="0.85"/>
<line x1="1508.8" y1="96.6" x2="1405.1" y2="220.0" stroke="#bbb" stroke-width="2.2" opacity="0.85"/>
<line x1="1508.8" y1="96.6" x2="1538.1" y2="87.0" stroke="#bbb" stroke-width="2.8" opacity="0.85"/>
<line x1="1671.1" y1="220.0" x2="1538.1" y2="353.0" stroke="#bbb" stroke-width="1.6" opacity="0.85"/>
<line x1="1538.1" y1="353.0" x2="1405.1" y2="220.0" stroke="#bbb" stroke-width="2.2" opacity="0.85"/>
<line x1="1538.1" y1="353.0" x2="1538.1" y2="87.0" stroke="#bbb" stroke-width="2.8" opacity="0.85"/>
<circle cx="1689.2" cy="245.0" r="13.0" fill="#2874a6" stroke="white" stroke-width="1"/>
<circle cx="1671.1" cy="270.0" r="11.2" fill="#2874a6" stroke="white" stroke-width="1"/>
<circle cx="1641.8" cy="260.4" r="10.6" fill="#2874a6" stroke="white" stroke-width="1"/>
<circle cx="1641.8" cy="229.6" r="13.0" fill="#2874a6" stroke="white" stroke-width="1"/>
<circle cx="1671.1" cy="220.0" r="10.6" fill="#2874a6" stroke="white" stroke-width="1"/>
<circle cx="1556.2" cy="378.0" r="13.5" fill="#c0392b" stroke="white" stroke-width="1"/>
<circle cx="1538.1" cy="403.0" r="9.9" fill="#c0392b" stroke="white" stroke-width="1"/>
<circle cx="1508.8" cy="393.4" r="11.8" fill="#c0392b" stroke="white" stroke-width="1"/>
<circle cx="1508.8" cy="362.6" r="10.6" fill="#c0392b" stroke="white" stroke-width="1"/>
<circle cx="1538.1" cy="353.0" r="13.5" fill="#c0392b" stroke="white" stroke-width="1"/>
<circle cx="1423.2" cy="245.0" r="11.8" fill="#27ae60" stroke="white" stroke-width="1"/>
<circle cx="1405.1" cy="270.0" r="11.2" fill="#27ae60" stroke="white" stroke-width="1"/>
<circle cx="1375.8" cy="260.4" r="11.8" fill="#27ae60" stroke="white" stroke-width="1"/>
<circle cx="1375.8" cy="229.6" r="10.6" fill="#27ae60" stroke="white" stroke-width="1"/>
<circle cx="1405.1" cy="220.0" r="14.0" fill="#27ae60" stroke="white" stroke-width="1"/>
<circle cx="1556.2" cy="112.0" r="11.8" fill="#8e44ad" stroke="white" stroke-width="1"/>
<circle cx="1538.1" cy="137.0" r="11.2" fill="#8e44ad" stroke="white" stroke-width="1"/>
<circle cx="1508.8" cy="127.4" r="10.6" fill="#8e44ad" stroke="white" stroke-width="1"/>
<circle cx="1508.8" cy="96.6" r="13.5" fill="#8e44ad" stroke="white" stroke-width="1"/>
<circle cx="1538.1" cy="87.0" r="11.2" fill="#8e44ad" stroke="white" stroke-width="1"/>
<line x1="1320" y1="30" x2="1320" y2="500" stroke="#ddd" stroke-width="1"/>
</svg>